<?xml version="1.0" encoding="UTF-8" standalone="no"?>
<!DOCTYPE svg PUBLIC "-//W3C//DTD SVG 1.1//EN"
 "http://www.w3.org/Graphics/SVG/1.1/DTD/svg11.dtd">
<!-- Generated by graphviz version 2.43.0 (0)
 -->
<!-- Title: JEM::AppModule Pages: 1 -->
<svg width="567pt" height="84pt"
 viewBox="0.00 0.00 566.50 84.00" xmlns="http://www.w3.org/2000/svg" xmlns:xlink="http://www.w3.org/1999/xlink">
<g id="graph0" class="graph" transform="scale(1 1) rotate(0) translate(4 80)">
<title>JEM::AppModule</title>
<!-- Node1 -->
<g id="node1" class="node">
<title>Node1</title>
<g id="a_node1"><a xlink:title=" ">
<polygon fill="#bfbfbf" stroke="black" points="247,-56.5 247,-75.5 342,-75.5 342,-56.5 247,-56.5"/>
<text text-anchor="middle" x="294.5" y="-63.5" font-family="Helvetica,sans-Serif" font-size="10.00">JEM::AppModule</text>
</a>
</g>
</g>
<!-- Node2 -->
<g id="node2" class="node">
<title>Node2</title>
<g id="a_node2"><a xlink:href="classJEM_1_1EventManager.html" target="_top" xlink:title=" ">
<polygon fill="none" stroke="black" points="0,-0.5 0,-19.5 111,-19.5 111,-0.5 0,-0.5"/>
<text text-anchor="middle" x="55.5" y="-7.5" font-family="Helvetica,sans-Serif" font-size="10.00">JEM::EventManager</text>
</a>
</g>
</g>
<!-- Node1&#45;&gt;Node2 -->
<g id="edge1" class="edge">
<title>Node1&#45;&gt;Node2</title>
<path fill="none" stroke="midnightblue" d="M246.78,-54.22C201.61,-44.01 134.73,-28.9 93.19,-19.52"/>
<polygon fill="midnightblue" stroke="midnightblue" points="246.1,-57.65 256.63,-56.44 247.65,-50.83 246.1,-57.65"/>
</g>
<!-- Node3 -->
<g id="node3" class="node">
<title>Node3</title>
<g id="a_node3"><a xlink:href="classJEM_1_1PluginLoader.html" target="_top" xlink:title=" ">
<polygon fill="none" stroke="black" points="129.5,-0.5 129.5,-19.5 233.5,-19.5 233.5,-0.5 129.5,-0.5"/>
<text text-anchor="middle" x="181.5" y="-7.5" font-family="Helvetica,sans-Serif" font-size="10.00">JEM::PluginLoader</text>
</a>
</g>
</g>
<!-- Node1&#45;&gt;Node3 -->
<g id="edge2" class="edge">
<title>Node1&#45;&gt;Node3</title>
<path fill="none" stroke="midnightblue" d="M267.5,-52.1C246.39,-42.01 217.64,-28.27 199.32,-19.52"/>
<polygon fill="midnightblue" stroke="midnightblue" points="266.06,-55.29 276.59,-56.44 269.08,-48.97 266.06,-55.29"/>
</g>
<!-- Node4 -->
<g id="node4" class="node">
<title>Node4</title>
<g id="a_node4"><a xlink:href="classJEM_1_1Renderer.html" target="_top" xlink:title=" ">
<polygon fill="none" stroke="black" points="252,-0.5 252,-19.5 337,-19.5 337,-0.5 252,-0.5"/>
<text text-anchor="middle" x="294.5" y="-7.5" font-family="Helvetica,sans-Serif" font-size="10.00">JEM::Renderer</text>
</a>
</g>
</g>
<!-- Node1&#45;&gt;Node4 -->
<g id="edge3" class="edge">
<title>Node1&#45;&gt;Node4</title>
<path fill="none" stroke="midnightblue" d="M294.5,-45.8C294.5,-36.91 294.5,-26.78 294.5,-19.75"/>
<polygon fill="midnightblue" stroke="midnightblue" points="291,-46.08 294.5,-56.08 298,-46.08 291,-46.08"/>
</g>
<!-- Node5 -->
<g id="node5" class="node">
<title>Node5</title>
<g id="a_node5"><a xlink:href="classJEM_1_1TaskManager.html" target="_top" xlink:title=" ">
<polygon fill="none" stroke="black" points="355,-0.5 355,-19.5 460,-19.5 460,-0.5 355,-0.5"/>
<text text-anchor="middle" x="407.5" y="-7.5" font-family="Helvetica,sans-Serif" font-size="10.00">JEM::TaskManager</text>
</a>
</g>
</g>
<!-- Node1&#45;&gt;Node5 -->
<g id="edge4" class="edge">
<title>Node1&#45;&gt;Node5</title>
<path fill="none" stroke="midnightblue" d="M321.5,-52.1C342.61,-42.01 371.36,-28.27 389.68,-19.52"/>
<polygon fill="midnightblue" stroke="midnightblue" points="319.92,-48.97 312.41,-56.44 322.94,-55.29 319.92,-48.97"/>
</g>
<!-- Node6 -->
<g id="node6" class="node">
<title>Node6</title>
<g id="a_node6"><a xlink:href="classJEM_1_1Window.html" target="_top" xlink:title=" ">
<polygon fill="none" stroke="black" points="478.5,-0.5 478.5,-19.5 558.5,-19.5 558.5,-0.5 478.5,-0.5"/>
<text text-anchor="middle" x="518.5" y="-7.5" font-family="Helvetica,sans-Serif" font-size="10.00">JEM::Window</text>
</a>
</g>
</g>
<!-- Node1&#45;&gt;Node6 -->
<g id="edge5" class="edge">
<title>Node1&#45;&gt;Node6</title>
<path fill="none" stroke="midnightblue" d="M339.76,-54.09C382.08,-43.89 444.41,-28.86 483.17,-19.52"/>
<polygon fill="midnightblue" stroke="midnightblue" points="338.89,-50.7 329.99,-56.44 340.54,-57.5 338.89,-50.7"/>
</g>
</g>
</svg>
