<?xml version="1.0" encoding="UTF-8" standalone="no"?>
<!DOCTYPE svg PUBLIC "-//W3C//DTD SVG 1.1//EN"
 "http://www.w3.org/Graphics/SVG/1.1/DTD/svg11.dtd">
<!-- Generated by graphviz version 2.43.0 (0)
 -->
<!-- Title: JEM::AppModule Pages: 1 -->
<svg width="567pt" height="82pt"
 viewBox="0.00 0.00 566.50 82.00" xmlns="http://www.w3.org/2000/svg" xmlns:xlink="http://www.w3.org/1999/xlink">
<g id="graph0" class="graph" transform="scale(1 1) rotate(0) translate(4 78)">
<title>JEM::AppModule</title>
<!-- Node1 -->
<g id="Node000001" class="node">
<title>Node1</title>
<g id="a_Node000001"><a xlink:title=" ">
<polygon fill="#999999" stroke="#666666" points="342,-74 247,-74 247,-55 342,-55 342,-74"/>
<text text-anchor="middle" x="294.5" y="-62" font-family="Helvetica,sans-Serif" font-size="10.00">JEM::AppModule</text>
</a>
</g>
</g>
<!-- Node2 -->
<g id="Node000002" class="node">
<title>Node2</title>
<g id="a_Node000002"><a xlink:href="classJEM_1_1EventManager.html" target="_top" xlink:title=" ">
<polygon fill="white" stroke="#bfbfbf" points="111,-19 0,-19 0,0 111,0 111,-19"/>
<text text-anchor="middle" x="55.5" y="-7" font-family="Helvetica,sans-Serif" font-size="10.00">JEM::EventManager</text>
</a>
</g>
</g>
<!-- Node1&#45;&gt;Node2 -->
<g id="edge1_Node000001_Node000002" class="edge">
<title>Node1&#45;&gt;Node2</title>
<g id="a_edge1_Node000001_Node000002"><a xlink:title=" ">
<path fill="none" stroke="#63b8ff" d="M246.32,-52.82C201.53,-42.88 135.66,-28.28 94.2,-19.08"/>
<polygon fill="#63b8ff" stroke="#63b8ff" points="245.58,-56.24 256.1,-54.98 247.1,-49.4 245.58,-56.24"/>
</a>
</g>
</g>
<!-- Node3 -->
<g id="Node000003" class="node">
<title>Node3</title>
<g id="a_Node000003"><a xlink:href="classJEM_1_1PluginLoader.html" target="_top" xlink:title=" ">
<polygon fill="white" stroke="#bfbfbf" points="233.5,-19 129.5,-19 129.5,0 233.5,0 233.5,-19"/>
<text text-anchor="middle" x="181.5" y="-7" font-family="Helvetica,sans-Serif" font-size="10.00">JEM::PluginLoader</text>
</a>
</g>
</g>
<!-- Node1&#45;&gt;Node3 -->
<g id="edge2_Node000001_Node000003" class="edge">
<title>Node1&#45;&gt;Node3</title>
<g id="a_edge2_Node000001_Node000003"><a xlink:title=" ">
<path fill="none" stroke="#63b8ff" d="M267.07,-50.63C246.25,-40.87 218.2,-27.71 199.99,-19.17"/>
<polygon fill="#63b8ff" stroke="#63b8ff" points="265.8,-53.91 276.34,-54.98 268.78,-47.57 265.8,-53.91"/>
</a>
</g>
</g>
<!-- Node4 -->
<g id="Node000004" class="node">
<title>Node4</title>
<g id="a_Node000004"><a xlink:href="classJEM_1_1Renderer.html" target="_top" xlink:title=" ">
<polygon fill="white" stroke="#bfbfbf" points="337,-19 252,-19 252,0 337,0 337,-19"/>
<text text-anchor="middle" x="294.5" y="-7" font-family="Helvetica,sans-Serif" font-size="10.00">JEM::Renderer</text>
</a>
</g>
</g>
<!-- Node1&#45;&gt;Node4 -->
<g id="edge3_Node000001_Node000004" class="edge">
<title>Node1&#45;&gt;Node4</title>
<g id="a_edge3_Node000001_Node000004"><a xlink:title=" ">
<path fill="none" stroke="#63b8ff" d="M294.5,-44.66C294.5,-35.93 294.5,-25.99 294.5,-19.09"/>
<polygon fill="#63b8ff" stroke="#63b8ff" points="291,-44.75 294.5,-54.75 298,-44.75 291,-44.75"/>
</a>
</g>
</g>
<!-- Node5 -->
<g id="Node000005" class="node">
<title>Node5</title>
<g id="a_Node000005"><a xlink:href="classJEM_1_1TaskManager.html" target="_top" xlink:title=" ">
<polygon fill="white" stroke="#bfbfbf" points="460,-19 355,-19 355,0 460,0 460,-19"/>
<text text-anchor="middle" x="407.5" y="-7" font-family="Helvetica,sans-Serif" font-size="10.00">JEM::TaskManager</text>
</a>
</g>
</g>
<!-- Node1&#45;&gt;Node5 -->
<g id="edge4_Node000001_Node000005" class="edge">
<title>Node1&#45;&gt;Node5</title>
<g id="a_edge4_Node000001_Node000005"><a xlink:title=" ">
<path fill="none" stroke="#63b8ff" d="M321.93,-50.63C342.75,-40.87 370.8,-27.71 389.01,-19.17"/>
<polygon fill="#63b8ff" stroke="#63b8ff" points="320.22,-47.57 312.66,-54.98 323.2,-53.91 320.22,-47.57"/>
</a>
</g>
</g>
<!-- Node6 -->
<g id="Node000006" class="node">
<title>Node6</title>
<g id="a_Node000006"><a xlink:href="classJEM_1_1Window.html" target="_top" xlink:title=" ">
<polygon fill="white" stroke="#bfbfbf" points="558.5,-19 478.5,-19 478.5,0 558.5,0 558.5,-19"/>
<text text-anchor="middle" x="518.5" y="-7" font-family="Helvetica,sans-Serif" font-size="10.00">JEM::Window</text>
</a>
</g>
</g>
<!-- Node1&#45;&gt;Node6 -->
<g id="edge5_Node000001_Node000006" class="edge">
<title>Node1&#45;&gt;Node6</title>
<g id="a_edge5_Node000001_Node000006"><a xlink:title=" ">
<path fill="none" stroke="#63b8ff" d="M340.45,-52.63C382.41,-42.7 443.62,-28.22 482.23,-19.08"/>
<polygon fill="#63b8ff" stroke="#63b8ff" points="339.41,-49.28 330.49,-54.98 341.03,-56.09 339.41,-49.28"/>
</a>
</g>
</g>
</g>
</svg>
