<?xml version="1.0" encoding="UTF-8" standalone="no"?>
<!DOCTYPE svg PUBLIC "-//W3C//DTD SVG 1.1//EN"
 "http://www.w3.org/Graphics/SVG/1.1/DTD/svg11.dtd">
<!-- Generated by graphviz version 2.43.0 (0)
 -->
<!-- Title: Graphical Class Hierarchy Pages: 1 -->
<svg width="279pt" height="175pt"
 viewBox="0.00 0.00 279.00 175.00" xmlns="http://www.w3.org/2000/svg" xmlns:xlink="http://www.w3.org/1999/xlink">
<g id="graph0" class="graph" transform="scale(1 1) rotate(0) translate(4 171)">
<title>Graphical Class Hierarchy</title>
<!-- Node0 -->
<g id="Node000000" class="node">
<title>Node0</title>
<g id="a_Node000000"><a xlink:href="classJEM_1_1AppModule.html" target="_top" xlink:title=" ">
<polygon fill="white" stroke="#666666" points="95,-93 0,-93 0,-74 95,-74 95,-93"/>
<text text-anchor="middle" x="47.5" y="-81" font-family="Helvetica,sans-Serif" font-size="10.00">JEM::AppModule</text>
</a>
</g>
</g>
<!-- Node1 -->
<g id="Node000001" class="node">
<title>Node1</title>
<g id="a_Node000001"><a xlink:href="classJEM_1_1EventManager.html" target="_top" xlink:title=" ">
<polygon fill="white" stroke="#666666" points="256.5,-167 145.5,-167 145.5,-148 256.5,-148 256.5,-167"/>
<text text-anchor="middle" x="201" y="-155" font-family="Helvetica,sans-Serif" font-size="10.00">JEM::EventManager</text>
</a>
</g>
</g>
<!-- Node0&#45;&gt;Node1 -->
<g id="edge6_Node000000_Node000001" class="edge">
<title>Node0&#45;&gt;Node1</title>
<g id="a_edge6_Node000000_Node000001"><a xlink:title=" ">
<path fill="none" stroke="#63b8ff" d="M67.81,-99.43C83.85,-111.93 107.72,-128.94 131,-139.5 138.33,-142.82 146.38,-145.62 154.32,-147.94"/>
<polygon fill="#63b8ff" stroke="#63b8ff" points="69.77,-96.51 59.77,-93.01 65.4,-101.98 69.77,-96.51"/>
</a>
</g>
</g>
<!-- Node2 -->
<g id="Node000002" class="node">
<title>Node2</title>
<g id="a_Node000002"><a xlink:href="classJEM_1_1Plugin_1_1PluginLoader.html" target="_top" xlink:title=" ">
<polygon fill="white" stroke="#666666" points="271,-130 131,-130 131,-111 271,-111 271,-130"/>
<text text-anchor="middle" x="201" y="-118" font-family="Helvetica,sans-Serif" font-size="10.00">JEM::Plugin::PluginLoader</text>
</a>
</g>
</g>
<!-- Node0&#45;&gt;Node2 -->
<g id="edge7_Node000000_Node000002" class="edge">
<title>Node0&#45;&gt;Node2</title>
<g id="a_edge7_Node000000_Node000002"><a xlink:title=" ">
<path fill="none" stroke="#63b8ff" d="M97.33,-95.43C117.88,-100.44 141.47,-106.21 160.85,-110.94"/>
<polygon fill="#63b8ff" stroke="#63b8ff" points="98.06,-92 87.52,-93.03 96.4,-98.8 98.06,-92"/>
</a>
</g>
</g>
<!-- Node3 -->
<g id="Node000003" class="node">
<title>Node3</title>
<g id="a_Node000003"><a xlink:href="classJEM_1_1Renderer.html" target="_top" xlink:title=" ">
<polygon fill="white" stroke="#666666" points="243.5,-93 158.5,-93 158.5,-74 243.5,-74 243.5,-93"/>
<text text-anchor="middle" x="201" y="-81" font-family="Helvetica,sans-Serif" font-size="10.00">JEM::Renderer</text>
</a>
</g>
</g>
<!-- Node0&#45;&gt;Node3 -->
<g id="edge8_Node000000_Node000003" class="edge">
<title>Node0&#45;&gt;Node3</title>
<g id="a_edge8_Node000000_Node000003"><a xlink:title=" ">
<path fill="none" stroke="#63b8ff" d="M105.35,-83.5C122.94,-83.5 141.98,-83.5 158.35,-83.5"/>
<polygon fill="#63b8ff" stroke="#63b8ff" points="105.19,-80 95.19,-83.5 105.19,-87 105.19,-80"/>
</a>
</g>
</g>
<!-- Node4 -->
<g id="Node000004" class="node">
<title>Node4</title>
<g id="a_Node000004"><a xlink:href="classJEM_1_1TaskManager.html" target="_top" xlink:title=" ">
<polygon fill="white" stroke="#666666" points="253.5,-56 148.5,-56 148.5,-37 253.5,-37 253.5,-56"/>
<text text-anchor="middle" x="201" y="-44" font-family="Helvetica,sans-Serif" font-size="10.00">JEM::TaskManager</text>
</a>
</g>
</g>
<!-- Node0&#45;&gt;Node4 -->
<g id="edge9_Node000000_Node000004" class="edge">
<title>Node0&#45;&gt;Node4</title>
<g id="a_edge9_Node000000_Node000004"><a xlink:title=" ">
<path fill="none" stroke="#63b8ff" d="M97.33,-71.57C117.88,-66.56 141.47,-60.79 160.85,-56.06"/>
<polygon fill="#63b8ff" stroke="#63b8ff" points="96.4,-68.2 87.52,-73.97 98.06,-75 96.4,-68.2"/>
</a>
</g>
</g>
<!-- Node5 -->
<g id="Node000005" class="node">
<title>Node5</title>
<g id="a_Node000005"><a xlink:href="classJEM_1_1Window.html" target="_top" xlink:title=" ">
<polygon fill="white" stroke="#666666" points="241,-19 161,-19 161,0 241,0 241,-19"/>
<text text-anchor="middle" x="201" y="-7" font-family="Helvetica,sans-Serif" font-size="10.00">JEM::Window</text>
</a>
</g>
</g>
<!-- Node0&#45;&gt;Node5 -->
<g id="edge10_Node000000_Node000005" class="edge">
<title>Node0&#45;&gt;Node5</title>
<g id="a_edge10_Node000000_Node000005"><a xlink:title=" ">
<path fill="none" stroke="#63b8ff" d="M68.45,-67.54C84.53,-55.35 108.14,-38.94 131,-28.5 140.38,-24.22 150.93,-20.71 160.91,-17.93"/>
<polygon fill="#63b8ff" stroke="#63b8ff" points="66.12,-64.92 60.35,-73.81 70.4,-70.45 66.12,-64.92"/>
</a>
</g>
</g>
</g>
</svg>
