<?xml version="1.0" encoding="UTF-8" standalone="no"?>
<!DOCTYPE svg PUBLIC "-//W3C//DTD SVG 1.1//EN"
 "http://www.w3.org/Graphics/SVG/1.1/DTD/svg11.dtd">
<!-- Generated by graphviz version 2.43.0 (0)
 -->
<!-- Title: Graphical Class Hierarchy Pages: 1 -->
<svg width="250pt" height="175pt"
 viewBox="0.00 0.00 250.00 175.00" xmlns="http://www.w3.org/2000/svg" xmlns:xlink="http://www.w3.org/1999/xlink">
<g id="graph0" class="graph" transform="scale(1 1) rotate(0) translate(4 171)">
<title>Graphical Class Hierarchy</title>
<!-- Node0 -->
<g id="Node000000" class="node">
<title>Node0</title>
<g id="a_Node000000"><a xlink:href="classJEM_1_1AppModule.html" target="_top" xlink:title=" ">
<polygon fill="white" stroke="#666666" points="95,-93 0,-93 0,-74 95,-74 95,-93"/>
<text text-anchor="middle" x="47.5" y="-81" font-family="Helvetica,sans-Serif" font-size="10.00">JEM::AppModule</text>
</a>
</g>
</g>
<!-- Node1 -->
<g id="Node000001" class="node">
<title>Node1</title>
<g id="a_Node000001"><a xlink:href="classJEM_1_1EventManager.html" target="_top" xlink:title=" ">
<polygon fill="white" stroke="#666666" points="242,-167 131,-167 131,-148 242,-148 242,-167"/>
<text text-anchor="middle" x="186.5" y="-155" font-family="Helvetica,sans-Serif" font-size="10.00">JEM::EventManager</text>
</a>
</g>
</g>
<!-- Node0&#45;&gt;Node1 -->
<g id="edge6_Node000000_Node000001" class="edge">
<title>Node0&#45;&gt;Node1</title>
<g id="a_edge6_Node000000_Node000001"><a xlink:title=" ">
<path fill="none" stroke="#63b8ff" d="M68.56,-99.45C84.69,-111.7 108.33,-128.33 131,-139.5 137.53,-142.71 144.76,-145.56 151.77,-147.98"/>
<polygon fill="#63b8ff" stroke="#63b8ff" points="70.47,-96.51 60.42,-93.17 66.2,-102.05 70.47,-96.51"/>
</a>
</g>
</g>
<!-- Node2 -->
<g id="Node000002" class="node">
<title>Node2</title>
<g id="a_Node000002"><a xlink:href="classJEM_1_1PluginLoader.html" target="_top" xlink:title=" ">
<polygon fill="white" stroke="#666666" points="238.5,-130 134.5,-130 134.5,-111 238.5,-111 238.5,-130"/>
<text text-anchor="middle" x="186.5" y="-118" font-family="Helvetica,sans-Serif" font-size="10.00">JEM::PluginLoader</text>
</a>
</g>
</g>
<!-- Node0&#45;&gt;Node2 -->
<g id="edge7_Node000000_Node000002" class="edge">
<title>Node0&#45;&gt;Node2</title>
<g id="a_edge7_Node000000_Node000002"><a xlink:title=" ">
<path fill="none" stroke="#63b8ff" d="M93.63,-95.69C111.9,-100.62 132.69,-106.24 149.86,-110.88"/>
<polygon fill="#63b8ff" stroke="#63b8ff" points="94.35,-92.26 83.78,-93.03 92.52,-99.01 94.35,-92.26"/>
</a>
</g>
</g>
<!-- Node3 -->
<g id="Node000003" class="node">
<title>Node3</title>
<g id="a_Node000003"><a xlink:href="classJEM_1_1Renderer.html" target="_top" xlink:title=" ">
<polygon fill="white" stroke="#666666" points="229,-93 144,-93 144,-74 229,-74 229,-93"/>
<text text-anchor="middle" x="186.5" y="-81" font-family="Helvetica,sans-Serif" font-size="10.00">JEM::Renderer</text>
</a>
</g>
</g>
<!-- Node0&#45;&gt;Node3 -->
<g id="edge8_Node000000_Node000003" class="edge">
<title>Node0&#45;&gt;Node3</title>
<g id="a_edge8_Node000000_Node000003"><a xlink:title=" ">
<path fill="none" stroke="#63b8ff" d="M105.46,-83.5C118.38,-83.5 131.86,-83.5 143.99,-83.5"/>
<polygon fill="#63b8ff" stroke="#63b8ff" points="105.26,-80 95.26,-83.5 105.26,-87 105.26,-80"/>
</a>
</g>
</g>
<!-- Node4 -->
<g id="Node000004" class="node">
<title>Node4</title>
<g id="a_Node000004"><a xlink:href="classJEM_1_1TaskManager.html" target="_top" xlink:title=" ">
<polygon fill="white" stroke="#666666" points="239,-56 134,-56 134,-37 239,-37 239,-56"/>
<text text-anchor="middle" x="186.5" y="-44" font-family="Helvetica,sans-Serif" font-size="10.00">JEM::TaskManager</text>
</a>
</g>
</g>
<!-- Node0&#45;&gt;Node4 -->
<g id="edge9_Node000000_Node000004" class="edge">
<title>Node0&#45;&gt;Node4</title>
<g id="a_edge9_Node000000_Node000004"><a xlink:title=" ">
<path fill="none" stroke="#63b8ff" d="M93.63,-71.31C111.9,-66.38 132.69,-60.76 149.86,-56.12"/>
<polygon fill="#63b8ff" stroke="#63b8ff" points="92.52,-67.99 83.78,-73.97 94.35,-74.74 92.52,-67.99"/>
</a>
</g>
</g>
<!-- Node5 -->
<g id="Node000005" class="node">
<title>Node5</title>
<g id="a_Node000005"><a xlink:href="classJEM_1_1Window.html" target="_top" xlink:title=" ">
<polygon fill="white" stroke="#666666" points="226.5,-19 146.5,-19 146.5,0 226.5,0 226.5,-19"/>
<text text-anchor="middle" x="186.5" y="-7" font-family="Helvetica,sans-Serif" font-size="10.00">JEM::Window</text>
</a>
</g>
</g>
<!-- Node0&#45;&gt;Node5 -->
<g id="edge10_Node000000_Node000005" class="edge">
<title>Node0&#45;&gt;Node5</title>
<g id="a_edge10_Node000000_Node000005"><a xlink:title=" ">
<path fill="none" stroke="#63b8ff" d="M68.94,-67.75C85.11,-55.82 108.63,-39.63 131,-28.5 138.18,-24.93 146.19,-21.73 153.82,-19.03"/>
<polygon fill="#63b8ff" stroke="#63b8ff" points="66.66,-65.08 60.76,-73.88 70.86,-70.68 66.66,-65.08"/>
</a>
</g>
</g>
</g>
</svg>
