<?xml version="1.0" encoding="UTF-8" standalone="no"?>
<!DOCTYPE svg PUBLIC "-//W3C//DTD SVG 1.1//EN"
 "http://www.w3.org/Graphics/SVG/1.1/DTD/svg11.dtd">
<!-- Generated by graphviz version 2.43.0 (0)
 -->
<!-- Title: Graphical Class Hierarchy Pages: 1 -->
<svg width="250pt" height="180pt"
 viewBox="0.00 0.00 250.00 180.00" xmlns="http://www.w3.org/2000/svg" xmlns:xlink="http://www.w3.org/1999/xlink">
<g id="graph0" class="graph" transform="scale(1 1) rotate(0) translate(4 176)">
<title>Graphical Class Hierarchy</title>
<!-- Node0 -->
<g id="node1" class="node">
<title>Node0</title>
<g id="a_node1"><a xlink:href="classJEM_1_1AppModule.html" target="_top" xlink:title=" ">
<polygon fill="none" stroke="black" points="0,-76.5 0,-95.5 95,-95.5 95,-76.5 0,-76.5"/>
<text text-anchor="middle" x="47.5" y="-83.5" font-family="Helvetica,sans-Serif" font-size="10.00">JEM::AppModule</text>
</a>
</g>
</g>
<!-- Node1 -->
<g id="node2" class="node">
<title>Node1</title>
<g id="a_node2"><a xlink:href="classJEM_1_1EventManager.html" target="_top" xlink:title=" ">
<polygon fill="none" stroke="black" points="131,-152.5 131,-171.5 242,-171.5 242,-152.5 131,-152.5"/>
<text text-anchor="middle" x="186.5" y="-159.5" font-family="Helvetica,sans-Serif" font-size="10.00">JEM::EventManager</text>
</a>
</g>
</g>
<!-- Node0&#45;&gt;Node1 -->
<g id="edge1" class="edge">
<title>Node0&#45;&gt;Node1</title>
<path fill="none" stroke="midnightblue" d="M68.29,-101.94C84.43,-114.38 108.21,-131.42 131,-143 138.06,-146.59 145.95,-149.77 153.49,-152.45"/>
<polygon fill="midnightblue" stroke="midnightblue" points="70.19,-98.99 60.16,-95.58 65.87,-104.5 70.19,-98.99"/>
</g>
<!-- Node2 -->
<g id="node3" class="node">
<title>Node2</title>
<g id="a_node3"><a xlink:href="classJEM_1_1PluginLoader.html" target="_top" xlink:title=" ">
<polygon fill="none" stroke="black" points="134.5,-114.5 134.5,-133.5 238.5,-133.5 238.5,-114.5 134.5,-114.5"/>
<text text-anchor="middle" x="186.5" y="-121.5" font-family="Helvetica,sans-Serif" font-size="10.00">JEM::PluginLoader</text>
</a>
</g>
</g>
<!-- Node0&#45;&gt;Node2 -->
<g id="edge2" class="edge">
<title>Node0&#45;&gt;Node2</title>
<path fill="none" stroke="midnightblue" d="M92.91,-98.32C111.73,-103.54 133.34,-109.53 150.94,-114.41"/>
<polygon fill="midnightblue" stroke="midnightblue" points="93.64,-94.89 83.07,-95.59 91.77,-101.63 93.64,-94.89"/>
</g>
<!-- Node3 -->
<g id="node4" class="node">
<title>Node3</title>
<g id="a_node4"><a xlink:href="classJEM_1_1Renderer.html" target="_top" xlink:title=" ">
<polygon fill="none" stroke="black" points="144,-76.5 144,-95.5 229,-95.5 229,-76.5 144,-76.5"/>
<text text-anchor="middle" x="186.5" y="-83.5" font-family="Helvetica,sans-Serif" font-size="10.00">JEM::Renderer</text>
</a>
</g>
</g>
<!-- Node0&#45;&gt;Node3 -->
<g id="edge3" class="edge">
<title>Node0&#45;&gt;Node3</title>
<path fill="none" stroke="midnightblue" d="M105.46,-86C118.38,-86 131.86,-86 143.99,-86"/>
<polygon fill="midnightblue" stroke="midnightblue" points="105.26,-82.5 95.26,-86 105.26,-89.5 105.26,-82.5"/>
</g>
<!-- Node4 -->
<g id="node5" class="node">
<title>Node4</title>
<g id="a_node5"><a xlink:href="classJEM_1_1TaskManager.html" target="_top" xlink:title=" ">
<polygon fill="none" stroke="black" points="134,-38.5 134,-57.5 239,-57.5 239,-38.5 134,-38.5"/>
<text text-anchor="middle" x="186.5" y="-45.5" font-family="Helvetica,sans-Serif" font-size="10.00">JEM::TaskManager</text>
</a>
</g>
</g>
<!-- Node0&#45;&gt;Node4 -->
<g id="edge4" class="edge">
<title>Node0&#45;&gt;Node4</title>
<path fill="none" stroke="midnightblue" d="M92.91,-73.68C111.73,-68.46 133.34,-62.47 150.94,-57.59"/>
<polygon fill="midnightblue" stroke="midnightblue" points="91.77,-70.37 83.07,-76.41 93.64,-77.11 91.77,-70.37"/>
</g>
<!-- Node5 -->
<g id="node6" class="node">
<title>Node5</title>
<g id="a_node6"><a xlink:href="classJEM_1_1Window.html" target="_top" xlink:title=" ">
<polygon fill="none" stroke="black" points="146.5,-0.5 146.5,-19.5 226.5,-19.5 226.5,-0.5 146.5,-0.5"/>
<text text-anchor="middle" x="186.5" y="-7.5" font-family="Helvetica,sans-Serif" font-size="10.00">JEM::Window</text>
</a>
</g>
</g>
<!-- Node0&#45;&gt;Node5 -->
<g id="edge5" class="edge">
<title>Node0&#45;&gt;Node5</title>
<path fill="none" stroke="midnightblue" d="M68.29,-70.06C84.43,-57.62 108.21,-40.58 131,-29 138.06,-25.41 145.95,-22.23 153.49,-19.55"/>
<polygon fill="midnightblue" stroke="midnightblue" points="65.87,-67.5 60.16,-76.42 70.19,-73.01 65.87,-67.5"/>
</g>
</g>
</svg>
